<svg width="4" height="5" viewBox="0 0 4 5" fill="none" xmlns="http://www.w3.org/2000/svg">
<path d="M0.161248 1.82428L0.12888 1.49591C0.115175 1.35687 0.212205 1.21654 0.345282 1.18292L3.10985 0.468133C3.24356 0.433597 3.36275 0.518089 3.37568 0.656573L3.65911 3.53203C3.67281 3.67107 3.57578 3.81141 3.44271 3.84503L3.12691 3.92659C2.99177 3.96149 2.8715 3.87349 2.8605 3.73223L2.72951 1.98154L0.894881 4.63504C0.80998 4.75783 0.657772 4.79715 0.55348 4.72322L0.302552 4.54534C0.198259 4.47141 0.182659 4.31314 0.26756 4.19034L2.10219 1.53685L0.432765 2.01126C0.29728 2.05004 0.17446 1.96573 0.161248 1.82428Z" fill="#F4F9FE"/>
</svg>
