<svg width="31" height="20" viewBox="0 0 31 20" fill="none" xmlns="http://www.w3.org/2000/svg">
<path d="M20.6159 0.69043H16.699C16.3343 0.69043 15.9832 0.836037 15.7141 1.09813L11.2318 5.46636C11.2273 5.47122 11.2227 5.48092 11.2182 5.48578C10.4612 6.24294 10.4749 7.45148 11.1224 8.20379C11.7015 8.87844 12.919 9.05802 13.6805 8.33484C13.685 8.32998 13.6941 8.32998 13.6987 8.32513L17.342 4.7723C17.6384 4.48594 18.1035 4.50535 18.3725 4.82084C18.6461 5.13632 18.6233 5.62653 18.3269 5.91775L17.1368 7.07775L23.7759 12.8147C23.9081 12.9312 24.0267 13.0574 24.1361 13.1884V3.79673L21.6464 1.14667C21.3774 0.855452 21.0035 0.69043 20.6159 0.69043ZM25.5998 3.80643V14.6736C25.5998 15.5327 26.2518 16.2268 27.0589 16.2268H29.9772V3.80643H25.5998ZM27.7885 14.6736C27.3872 14.6736 27.0589 14.3242 27.0589 13.897C27.0589 13.4699 27.3872 13.1205 27.7885 13.1205C28.1898 13.1205 28.5181 13.4699 28.5181 13.897C28.5181 14.3242 28.1898 14.6736 27.7885 14.6736ZM0.794434 16.2219H3.71271C4.5198 16.2219 5.17185 15.5279 5.17185 14.6688V3.80643H0.794434V16.2219ZM2.98314 13.1205C3.3844 13.1205 3.71271 13.4699 3.71271 13.897C3.71271 14.3242 3.3844 14.6736 2.98314 14.6736C2.58188 14.6736 2.25357 14.3242 2.25357 13.897C2.25357 13.4651 2.58188 13.1205 2.98314 13.1205ZM22.8593 14.0232L16.0516 8.14069L14.6836 9.47543C13.3293 10.7908 11.2546 10.6646 10.0463 9.26187C8.8197 7.83492 8.91545 5.62653 10.2469 4.32577L13.9768 0.69043H10.1557C9.76814 0.69043 9.39879 0.855452 9.1252 1.14667L6.63099 3.79673V14.6639H7.46543L11.5921 18.639C12.8414 19.7214 14.679 19.5175 15.6959 18.1876L15.705 18.1779L16.5212 18.9302C17.2462 19.5612 18.3178 19.4398 18.906 18.6681L20.3378 16.7946L20.584 17.0082C21.2087 17.547 22.1298 17.4499 22.6359 16.7801L23.0691 16.2122C23.5798 15.5424 23.484 14.5668 22.8593 14.0232Z" fill="url(#paint0_linear_17_144)" stroke="white" stroke-width="0.5"/>
<defs>
<linearGradient id="paint0_linear_17_144" x1="3.49951" y1="-1" x2="36.4995" y2="15.5" gradientUnits="userSpaceOnUse">
<stop stop-color="#C54A92"/>
<stop offset="1" stop-color="#2E62EB"/>
</linearGradient>
</defs>
</svg>
