<svg width="27" height="28" viewBox="0 0 27 28" fill="none" xmlns="http://www.w3.org/2000/svg">
<path d="M15.7854 14.1603C15.5764 15.0799 16.1616 16.0413 17.123 16.2502C18.0843 16.4592 19.0457 15.8741 19.2547 14.9545L21.8044 4.00337C22.0134 3.0838 21.4282 2.12245 20.4668 1.91345C19.5055 1.70446 18.5441 2.28964 18.3351 3.2092L15.7854 14.1603Z" fill="url(#paint0_linear_17_124)" stroke="white" stroke-width="0.5"/>
<path d="M19.0875 15.2464C19.0875 15.2464 15.451 11.6517 9.01409 13.4491C9.01409 13.4491 5.21045 14.1178 5.41944 16.0405C5.41944 16.0405 5.29405 20.8055 6.92418 23.6478C8.93893 27.0968 16.2087 27.6854 19.8297 23.6478C20.6408 22.7433 20.564 21.9305 21 20.5C21 19 21 15.5 19.0875 15.2464Z" fill="url(#paint1_linear_17_124)" stroke="white" stroke-width="0.5"/>
<path d="M12.607 14.7868C12.7742 15.7482 13.7355 16.3333 14.6969 16.1661C15.6583 15.9989 16.327 15.0794 16.1598 14.118L14.0699 3.08328C13.9027 2.12192 12.9414 1.53675 11.98 1.70394C11.0187 1.87113 10.3499 2.7907 10.5589 3.75206L12.607 14.7868Z" fill="url(#paint2_linear_17_124)"/>
<path d="M12.607 14.7868C12.7742 15.7482 13.7355 16.3333 14.6969 16.1661C15.6583 15.9989 16.327 15.0794 16.1598 14.118L14.0699 3.08328C13.9027 2.12192 12.9414 1.53675 11.98 1.70394C11.0187 1.87113 10.3499 2.7907 10.5589 3.75206L12.607 14.7868" stroke="white" stroke-width="0.5"/>
<path d="M5.2121 14.2443C5.0867 13.2829 5.79727 12.4051 6.80043 12.2797H6.84223C7.80359 12.1961 8.72315 12.8649 8.80675 13.8681L9.09933 16.585C9.22473 17.5463 8.51416 18.4241 7.511 18.5495H7.4692C6.46605 18.6331 5.58828 17.9643 5.50469 16.9611L5.2121 14.2443Z" fill="url(#paint3_linear_17_124)"/>
<path d="M5.2121 14.2443C5.0867 13.2829 5.79727 12.4051 6.80043 12.2797H6.84223C7.80359 12.1961 8.72315 12.8649 8.80675 13.8681L9.09933 16.585C9.22473 17.5463 8.51416 18.4241 7.511 18.5495H7.4692C6.46604 18.6331 5.58828 17.9643 5.50469 16.9611L5.2121 14.2443" stroke="white" stroke-width="0.5"/>
<path d="M8.59393 12.2797C8.46854 11.3183 9.17911 10.4405 10.1823 10.3151H10.2241C11.2272 10.2315 12.105 10.9003 12.1886 11.9035L12.4812 14.6204C12.6066 15.5817 11.896 16.4595 10.8928 16.5849H10.851C9.84788 16.6685 8.97012 15.9997 8.88652 14.9965L8.59393 12.2797Z" fill="url(#paint4_linear_17_124)"/>
<path d="M8.59393 12.2797C8.46854 11.3183 9.17911 10.4405 10.1823 10.3151H10.2241C11.2272 10.2315 12.105 10.9003 12.1886 11.9035L12.4812 14.6204C12.6066 15.5817 11.896 16.4595 10.8928 16.5849H10.851C9.84788 16.6685 8.97012 15.9997 8.88652 14.9965L8.59393 12.2797" stroke="white" stroke-width="0.5"/>
<path d="M6.91507 17.9648C7.91823 17.8394 8.58701 17.0035 8.50341 16.0003L8.21082 13.2834C8.16902 13.0326 8.04363 12.74 7.91823 12.4893C8.54521 12.7818 8.7542 13.2834 8.8378 13.8686L9.13038 16.5855C9.25578 17.5469 8.54521 18.4246 7.58385 18.5082C6.87328 18.5918 6.2045 18.2156 5.87012 17.6722C6.12091 17.8812 6.49709 18.0066 6.91507 17.9648Z" fill="white"/>
<path d="M10.2536 16.0002C11.2567 15.8748 11.9673 15.0388 11.8419 14.0775L11.5493 11.3606C11.5075 11.1098 11.3821 10.7754 11.2567 10.5664C11.8419 10.9008 12.0927 11.4024 12.1763 11.9875L12.4689 14.7044C12.5943 15.6658 11.8837 16.5018 10.8805 16.6272H10.8387C10.1282 16.7107 9.45939 16.3346 9.125 15.7912C9.45939 15.9584 9.83557 16.042 10.2536 16.0002Z" fill="white"/>
<path d="M17.4924 17.8809C15.486 16.9196 10.93 18.5915 11.8496 22.7713C11.8496 18.4243 15.7786 17.6719 17.4924 17.8809Z" fill="white"/>
<path d="M16.7349 13.5757C15.272 12.698 15.0212 14.0773 12.5551 14.1609C11.4683 14.2027 11.0086 16.418 12.6387 17.2122C14.8958 18.3407 15.063 16.7524 15.6482 17.3794C16.2333 18.0482 16.7767 18.1735 17.2783 18.9259C17.6545 19.4693 20.455 18.6333 20.7476 17.5048C21.2909 15.2895 18.992 14.9551 16.7349 13.5757Z" fill="white"/>
<path d="M16.9129 13.9515C15.4082 13.0737 15.1156 14.4531 12.5659 14.5367C11.4373 14.5785 10.9357 16.8774 12.6495 17.7133C14.9902 18.8837 15.1992 17.2117 15.7425 17.8805C16.3695 18.5493 16.9129 18.7165 17.4563 19.5106C17.8325 20.0958 16.8293 22.2693 16.8293 22.2693C16.8293 22.2693 19.7134 24.3174 20.2986 23.1471C21.3853 20.9736 21.0927 19.3017 21.0509 18.0477C20.9673 15.08 19.2954 15.3726 16.9129 13.9515Z" fill="url(#paint5_linear_17_124)"/>
<path d="M16.9129 13.9515C15.4082 13.0737 15.1156 14.4531 12.5659 14.5367C11.4373 14.5785 10.9357 16.8774 12.6495 17.7133C14.9902 18.8837 15.1992 17.2117 15.7425 17.8805C16.3695 18.5493 16.9129 18.7165 17.4563 19.5106C17.8325 20.0958 16.8293 22.2693 16.8293 22.2693C16.8293 22.2693 19.7134 24.3174 20.2986 23.1471C21.3853 20.9736 21.0927 19.3017 21.0509 18.0477C20.9673 15.08 19.2954 15.3726 16.9129 13.9515" stroke="white" stroke-width="0.5"/>
<defs>
<linearGradient id="paint0_linear_17_124" x1="16.3089" y1="0.56355" x2="24.7813" y2="1.70898" gradientUnits="userSpaceOnUse">
<stop stop-color="#C54A92"/>
<stop offset="1" stop-color="#2E62EB"/>
</linearGradient>
<linearGradient id="paint1_linear_17_124" x1="6.89843" y1="11.6952" x2="26.8266" y2="19.1003" gradientUnits="userSpaceOnUse">
<stop stop-color="#C54A92"/>
<stop offset="1" stop-color="#2E62EB"/>
</linearGradient>
<linearGradient id="paint2_linear_17_124" x1="11.0456" y1="0.359154" x2="18.9306" y2="1.34194" gradientUnits="userSpaceOnUse">
<stop stop-color="#C54A92"/>
<stop offset="1" stop-color="#2E62EB"/>
</linearGradient>
<linearGradient id="paint3_linear_17_124" x1="5.56074" y1="11.703" x2="10.8849" y2="12.7629" gradientUnits="userSpaceOnUse">
<stop stop-color="#C54A92"/>
<stop offset="1" stop-color="#2E62EB"/>
</linearGradient>
<linearGradient id="paint4_linear_17_124" x1="8.94257" y1="9.73838" x2="14.2668" y2="10.7983" gradientUnits="userSpaceOnUse">
<stop stop-color="#C54A92"/>
<stop offset="1" stop-color="#2E62EB"/>
</linearGradient>
<linearGradient id="paint5_linear_17_124" x1="12.4243" y1="12.7675" x2="24.7749" y2="16.6062" gradientUnits="userSpaceOnUse">
<stop stop-color="#C54A92"/>
<stop offset="1" stop-color="#2E62EB"/>
</linearGradient>
</defs>
</svg>
